<svg width="392" height="21" viewBox="0 0 392 21" fill="none" xmlns="http://www.w3.org/2000/svg">
<path d="M34.4282 4.4H36.4982V17H34.4282V11.546H29.0282V17H26.9582V4.4H29.0282V9.566H34.4282V4.4ZM43.1388 17.234C41.8068 17.234 40.6908 16.784 39.7728 15.866C38.8368 14.966 38.3868 13.832 38.3868 12.5C38.3868 11.168 38.8368 10.052 39.7728 9.134C40.6908 8.234 41.8068 7.766 43.1388 7.766C44.4708 7.766 45.5868 8.234 46.5048 9.134C47.4228 10.052 47.8908 11.168 47.8908 12.5C47.8908 13.832 47.4228 14.966 46.5048 15.866C45.5868 16.784 44.4708 17.234 43.1388 17.234ZM43.1388 15.344C43.9308 15.344 44.5968 15.074 45.1368 14.534C45.6768 13.994 45.9468 13.328 45.9468 12.5C45.9468 11.69 45.6768 11.006 45.1368 10.466C44.5968 9.926 43.9308 9.656 43.1388 9.656C42.3468 9.656 41.6808 9.926 41.1408 10.466C40.6008 11.006 40.3308 11.69 40.3308 12.5C40.3308 13.328 40.6008 13.994 41.1408 14.534C41.6808 15.074 42.3468 15.344 43.1388 15.344ZM59.4766 7.766C60.4846 7.766 61.3126 8.108 61.9426 8.756C62.5546 9.422 62.8786 10.304 62.8786 11.42V17H60.9346V11.546C60.9346 10.934 60.7726 10.448 60.4666 10.106C60.1426 9.764 59.7286 9.584 59.1886 9.584C58.5766 9.584 58.1086 9.782 57.7486 10.178C57.3886 10.574 57.2266 11.168 57.2266 11.96V17H55.2826V11.546C55.2826 10.934 55.1206 10.448 54.8326 10.106C54.5446 9.764 54.1306 9.584 53.5906 9.584C52.9966 9.584 52.5106 9.8 52.1506 10.196C51.7726 10.592 51.5926 11.186 51.5926 11.96V17H49.6486V8H51.5926V9.08C52.1686 8.216 53.0146 7.766 54.1666 7.766C55.3186 7.766 56.1646 8.252 56.7226 9.188C57.3166 8.252 58.2346 7.766 59.4766 7.766ZM66.4892 13.328C66.6332 14.012 66.9572 14.552 67.4792 14.912C67.9832 15.272 68.6132 15.452 69.3692 15.452C70.3952 15.452 71.1692 15.092 71.6912 14.336L73.2932 15.272C72.3932 16.586 71.0792 17.234 69.3512 17.234C67.8752 17.234 66.7052 16.802 65.8052 15.902C64.9052 15.002 64.4552 13.868 64.4552 12.5C64.4552 11.168 64.8872 10.034 65.7872 9.134C66.6692 8.234 67.8032 7.766 69.2072 7.766C70.5212 7.766 71.6012 8.234 72.4472 9.152C73.2932 10.088 73.7252 11.204 73.7252 12.518C73.7252 12.734 73.6892 13.004 73.6532 13.328H66.4892ZM66.4712 11.744H71.7632C71.6192 11.024 71.3132 10.466 70.8452 10.088C70.3772 9.728 69.8192 9.53 69.1892 9.53C68.4692 9.53 67.8572 9.728 67.3892 10.124C66.9032 10.52 66.5972 11.06 66.4712 11.744Z" fill="white"/>
<path d="M157.945 17L157.063 14.462H151.699L150.817 17H148.567L153.139 4.4H155.623L160.177 17H157.945ZM152.383 12.518H156.379L154.381 6.83L152.383 12.518ZM166.499 7.766C167.723 7.766 168.785 8.234 169.667 9.134C170.531 10.052 170.981 11.168 170.981 12.5C170.981 13.832 170.531 14.948 169.667 15.866C168.785 16.784 167.723 17.234 166.499 17.234C165.131 17.234 164.069 16.73 163.349 15.704V17H161.405V4.4H163.349V9.278C164.069 8.27 165.131 7.766 166.499 7.766ZM166.193 15.38C167.003 15.38 167.687 15.11 168.227 14.57C168.767 14.03 169.037 13.328 169.037 12.5C169.037 11.672 168.767 10.988 168.227 10.448C167.687 9.908 167.003 9.62 166.193 9.62C165.365 9.62 164.699 9.908 164.159 10.448C163.619 10.988 163.349 11.672 163.349 12.5C163.349 13.328 163.619 14.03 164.159 14.57C164.699 15.11 165.365 15.38 166.193 15.38ZM176.991 17.234C175.659 17.234 174.543 16.784 173.625 15.866C172.689 14.966 172.239 13.832 172.239 12.5C172.239 11.168 172.689 10.052 173.625 9.134C174.543 8.234 175.659 7.766 176.991 7.766C178.323 7.766 179.439 8.234 180.357 9.134C181.275 10.052 181.743 11.168 181.743 12.5C181.743 13.832 181.275 14.966 180.357 15.866C179.439 16.784 178.323 17.234 176.991 17.234ZM176.991 15.344C177.783 15.344 178.449 15.074 178.989 14.534C179.529 13.994 179.799 13.328 179.799 12.5C179.799 11.69 179.529 11.006 178.989 10.466C178.449 9.926 177.783 9.656 176.991 9.656C176.199 9.656 175.533 9.926 174.993 10.466C174.453 11.006 174.183 11.69 174.183 12.5C174.183 13.328 174.453 13.994 174.993 14.534C175.533 15.074 176.199 15.344 176.991 15.344ZM189.567 8H191.511V17H189.567V15.848C188.973 16.784 188.037 17.234 186.777 17.234C185.733 17.234 184.905 16.91 184.275 16.244C183.627 15.596 183.321 14.678 183.321 13.526V8H185.265V13.328C185.265 14.012 185.445 14.516 185.805 14.876C186.165 15.236 186.651 15.416 187.281 15.416C187.965 15.416 188.505 15.218 188.937 14.786C189.351 14.354 189.567 13.706 189.567 12.824V8ZM198.806 9.872H196.574V14.192C196.574 14.57 196.646 14.84 196.826 15.002C196.988 15.164 197.24 15.254 197.564 15.272C197.888 15.29 198.302 15.29 198.806 15.254V17C197.312 17.18 196.25 17.054 195.602 16.622C194.954 16.19 194.63 15.38 194.63 14.192V9.872H192.974V8H194.63V6.056L196.574 5.48V8H198.806V9.872Z" fill="white"/>
<path d="M270.993 17.234C269.085 17.234 267.519 16.622 266.277 15.362C265.017 14.102 264.405 12.554 264.405 10.7C264.405 8.864 265.017 7.316 266.277 6.056C267.519 4.796 269.085 4.166 270.993 4.166C272.127 4.166 273.171 4.436 274.143 4.976C275.115 5.516 275.871 6.254 276.411 7.172L274.611 8.216C274.269 7.604 273.783 7.1 273.135 6.74C272.487 6.38 271.785 6.182 270.993 6.182C269.643 6.182 268.545 6.614 267.717 7.46C266.889 8.324 266.475 9.404 266.475 10.7C266.475 12.014 266.889 13.094 267.717 13.94C268.545 14.804 269.643 15.218 270.993 15.218C271.785 15.218 272.505 15.038 273.153 14.678C273.801 14.318 274.287 13.814 274.611 13.184L276.411 14.21C275.871 15.146 275.133 15.884 274.161 16.424C273.189 16.964 272.145 17.234 270.993 17.234ZM282.236 17.234C280.904 17.234 279.788 16.784 278.87 15.866C277.934 14.966 277.484 13.832 277.484 12.5C277.484 11.168 277.934 10.052 278.87 9.134C279.788 8.234 280.904 7.766 282.236 7.766C283.568 7.766 284.684 8.234 285.602 9.134C286.52 10.052 286.988 11.168 286.988 12.5C286.988 13.832 286.52 14.966 285.602 15.866C284.684 16.784 283.568 17.234 282.236 17.234ZM282.236 15.344C283.028 15.344 283.694 15.074 284.234 14.534C284.774 13.994 285.044 13.328 285.044 12.5C285.044 11.69 284.774 11.006 284.234 10.466C283.694 9.926 283.028 9.656 282.236 9.656C281.444 9.656 280.778 9.926 280.238 10.466C279.698 11.006 279.428 11.69 279.428 12.5C279.428 13.328 279.698 13.994 280.238 14.534C280.778 15.074 281.444 15.344 282.236 15.344ZM293.479 7.766C294.505 7.766 295.333 8.108 295.981 8.756C296.611 9.422 296.935 10.322 296.935 11.474V17H294.991V11.672C294.991 11.006 294.811 10.484 294.451 10.124C294.091 9.764 293.587 9.584 292.975 9.584C292.291 9.584 291.733 9.8 291.319 10.232C290.887 10.664 290.689 11.312 290.689 12.176V17H288.745V8H290.689V9.152C291.265 8.234 292.201 7.766 293.479 7.766ZM304.051 9.872H301.819V14.192C301.819 14.57 301.891 14.84 302.071 15.002C302.233 15.164 302.485 15.254 302.809 15.272C303.133 15.29 303.547 15.29 304.051 15.254V17C302.557 17.18 301.495 17.054 300.847 16.622C300.199 16.19 299.875 15.38 299.875 14.192V9.872H298.219V8H299.875V6.056L301.819 5.48V8H304.051V9.872ZM312.573 8H314.517V17H312.573V15.704C311.835 16.73 310.791 17.234 309.423 17.234C308.181 17.234 307.119 16.784 306.255 15.866C305.373 14.948 304.941 13.832 304.941 12.5C304.941 11.168 305.373 10.052 306.255 9.134C307.119 8.234 308.181 7.766 309.423 7.766C310.791 7.766 311.835 8.27 312.573 9.278V8ZM309.729 15.38C310.539 15.38 311.223 15.11 311.763 14.57C312.303 14.03 312.573 13.328 312.573 12.5C312.573 11.672 312.303 10.988 311.763 10.448C311.223 9.908 310.539 9.62 309.729 9.62C308.901 9.62 308.235 9.908 307.695 10.448C307.155 10.988 306.885 11.672 306.885 12.5C306.885 13.328 307.155 14.03 307.695 14.57C308.235 15.11 308.901 15.38 309.729 15.38ZM321.03 17.234C319.662 17.234 318.528 16.784 317.628 15.866C316.728 14.966 316.278 13.832 316.278 12.5C316.278 11.168 316.728 10.034 317.628 9.134C318.528 8.234 319.662 7.766 321.03 7.766C321.894 7.766 322.704 7.982 323.424 8.396C324.144 8.828 324.684 9.386 325.044 10.088L323.37 11.06C323.154 10.628 322.848 10.304 322.434 10.052C322.02 9.8 321.552 9.674 321.012 9.674C320.22 9.674 319.554 9.944 319.014 10.484C318.474 11.024 318.222 11.708 318.222 12.5C318.222 13.31 318.474 13.976 319.014 14.516C319.554 15.056 320.22 15.326 321.012 15.326C321.534 15.326 322.002 15.2 322.434 14.948C322.866 14.696 323.19 14.372 323.406 13.94L325.08 14.894C324.684 15.614 324.144 16.19 323.424 16.604C322.704 17.036 321.894 17.234 321.03 17.234ZM331.508 9.872H329.276V14.192C329.276 14.57 329.348 14.84 329.528 15.002C329.69 15.164 329.942 15.254 330.266 15.272C330.59 15.29 331.004 15.29 331.508 15.254V17C330.014 17.18 328.952 17.054 328.304 16.622C327.656 16.19 327.332 15.38 327.332 14.192V9.872H325.676V8H327.332V6.056L329.276 5.48V8H331.508V9.872Z" fill="white"/>
<path d="M387.833 18V16.3333C387.833 15.4493 387.482 14.6014 386.857 13.9763C386.232 13.3512 385.384 13 384.5 13H379.5C378.616 13 377.768 13.3512 377.143 13.9763C376.518 14.6014 376.167 15.4493 376.167 16.3333V18M385.333 6.33333C385.333 8.17428 383.841 9.66667 382 9.66667C380.159 9.66667 378.667 8.17428 378.667 6.33333C378.667 4.49238 380.159 3 382 3C383.841 3 385.333 4.49238 385.333 6.33333Z" stroke="#E4E4E7" stroke-width="2" stroke-linecap="round" stroke-linejoin="round"/>
</svg>
